{"asset":{"version":"2.0","generator":"Blockbench 5.1.4 glTF exporter"},"scenes":[{"nodes":[19],"name":"blockbench_export"}],"scene":0,"nodes":[{"translation":[-0.019236750000000025,0.009140625000000124,0.5484374999999986],"name":"mesh","mesh":0},{"translation":[0.12501157407407387,0.041032407407407545,1.19518794861051e-9],"name":"mesh","mesh":1},{"rotation":[0,0,0.7071067811865475,0.7071067811865476],"translation":[-0.128113425925926,0.0035324074074075673,1.19518794861051e-9],"name":"mesh","mesh":2},{"rotation":[0,0,-1,6.123233995736766e-17],"translation":[0.18438657407407388,-0.43396759259259243,1.19518794861051e-9],"name":"mesh","mesh":3},{"rotation":[0.5000000050335389,-0.4999999945068562,-0.4999999949664602,0.5000000054931444],"translation":[-2.2878618999300215e-9,0.02594907407407443,0.2077957175925924],"name":"baton","children":[1,2,3]},{"name":"palm","mesh":4},{"translation":[-0.04456237499999999,0,0.0765521249999992],"name":"palm","children":[5]},{"translation":[-1.1102230246251565e-16,-0.018281249999999916,0.013710937499999076],"name":"fingers","mesh":5},{"rotation":[0,0.984807753012208,0,0.17364817766693041],"translation":[0.018743972392970654,0.018281249999999916,0.1995076637356732],"name":"fingers","children":[7]},{"rotation":[0,0.3007057995042731,0,0.9537169507482269],"translation":[0.09375,-0.024765625000000013,-0.046875],"name":"thumb","mesh":6},{"translation":[-0.05027100000000001,0.14625,0.21023437499999975],"name":"thumb","children":[9]},{"translation":[0.058730788799119193,-1.1102230246251565e-16,-0.007665321457854368],"name":"pointer","mesh":7},{"rotation":[0,-0.25881904510252074,0,0.9659258262890683],"translation":[-0.03998681640614865,0.073125,0.20525892269352664],"name":"pointer","children":[11]},{"translation":[0.01923187500000001,0.009140625000000124,1.1060156249999995],"name":"HandR","children":[4,6,8,10,12]},{"rotation":[-0.16093400996479548,0.014264557237198064,0.42644519154522265,0.8899670024508977],"translation":[-0.01923187500000001,0.02742187499999993,1.014609375000001],"name":"forearm","children":[0,13]},{"name":"shirtbump","mesh":8},{"translation":[-0.037659374999999995,-0.155390625,-0.11571787500000141],"name":"shoulder","mesh":9},{"rotation":[0.17364817766693033,0,0,0.984807753012208],"translation":[0,0.155390625,1.0679687500000004],"name":"arm","children":[15,16]},{"translation":[0,0,-0.8866406250000001],"name":"shoulder","children":[14,17]},{"translation":[-0.4375,-0.375,-8.8046875],"name":"RArm","children":[18]}],"bufferViews":[{"buffer":0,"byteOffset":0,"byteLength":720,"target":34962,"byteStride":12},{"buffer":0,"byteOffset":720,"byteLength":720,"target":34962,"byteStride":12},{"buffer":0,"byteOffset":1440,"byteLength":480,"target":34962,"byteStride":8},{"buffer":0,"byteOffset":1920,"byteLength":120,"target":34963},{"buffer":0,"byteOffset":2040,"byteLength":2304,"target":34962,"byteStride":12},{"buffer":0,"byteOffset":4344,"byteLength":2304,"target":34962,"byteStride":12},{"buffer":0,"byteOffset":6648,"byteLength":1536,"target":34962,"byteStride":8},{"buffer":0,"byteOffset":8184,"byteLength":576,"target":34963},{"buffer":0,"byteOffset":8760,"byteLength":768,"target":34962,"byteStride":12},{"buffer":0,"byteOffset":9528,"byteLength":768,"target":34962,"byteStride":12},{"buffer":0,"byteOffset":10296,"byteLength":512,"target":34962,"byteStride":8},{"buffer":0,"byteOffset":10808,"byteLength":192,"target":34963},{"buffer":0,"byteOffset":11000,"byteLength":768,"target":34962,"byteStride":12},{"buffer":0,"byteOffset":11768,"byteLength":768,"target":34962,"byteStride":12},{"buffer":0,"byteOffset":12536,"byteLength":512,"target":34962,"byteStride":8},{"buffer":0,"byteOffset":13048,"byteLength":192,"target":34963},{"buffer":0,"byteOffset":13240,"byteLength":1008,"target":34962,"byteStride":12},{"buffer":0,"byteOffset":14248,"byteLength":1008,"target":34962,"byteStride":12},{"buffer":0,"byteOffset":15256,"byteLength":672,"target":34962,"byteStride":8},{"buffer":0,"byteOffset":15928,"byteLength":168,"target":34963},{"buffer":0,"byteOffset":16096,"byteLength":432,"target":34962,"byteStride":12},{"buffer":0,"byteOffset":16528,"byteLength":432,"target":34962,"byteStride":12},{"buffer":0,"byteOffset":16960,"byteLength":288,"target":34962,"byteStride":8},{"buffer":0,"byteOffset":17248,"byteLength":72,"target":34963},{"buffer":0,"byteOffset":17320,"byteLength":432,"target":34962,"byteStride":12},{"buffer":0,"byteOffset":17752,"byteLength":432,"target":34962,"byteStride":12},{"buffer":0,"byteOffset":18184,"byteLength":288,"target":34962,"byteStride":8},{"buffer":0,"byteOffset":18472,"byteLength":72,"target":34963},{"buffer":0,"byteOffset":18544,"byteLength":432,"target":34962,"byteStride":12},{"buffer":0,"byteOffset":18976,"byteLength":432,"target":34962,"byteStride":12},{"buffer":0,"byteOffset":19408,"byteLength":288,"target":34962,"byteStride":8},{"buffer":0,"byteOffset":19696,"byteLength":72,"target":34963},{"buffer":0,"byteOffset":19768,"byteLength":432,"target":34962,"byteStride":12},{"buffer":0,"byteOffset":20200,"byteLength":432,"target":34962,"byteStride":12},{"buffer":0,"byteOffset":20632,"byteLength":288,"target":34962,"byteStride":8},{"buffer":0,"byteOffset":20920,"byteLength":72,"target":34963},{"buffer":0,"byteOffset":20992,"byteLength":432,"target":34962,"byteStride":12},{"buffer":0,"byteOffset":21424,"byteLength":432,"target":34962,"byteStride":12},{"buffer":0,"byteOffset":21856,"byteLength":288,"target":34962,"byteStride":8},{"buffer":0,"byteOffset":22144,"byteLength":72,"target":34963},{"buffer":0,"byteOffset":22216,"byteLength":8},{"buffer":0,"byteOffset":22224,"byteLength":32},{"buffer":0,"byteOffset":22256,"byteLength":8},{"buffer":0,"byteOffset":22264,"byteLength":24},{"buffer":0,"byteOffset":22288,"byteLength":32},{"buffer":0,"byteOffset":22320,"byteLength":128},{"buffer":0,"byteOffset":22448,"byteLength":12},{"buffer":0,"byteOffset":22460,"byteLength":36},{"buffer":0,"byteOffset":22496,"byteLength":20},{"buffer":0,"byteOffset":22516,"byteLength":80},{"buffer":0,"byteOffset":22596,"byteLength":12},{"buffer":0,"byteOffset":22608,"byteLength":36},{"buffer":0,"byteOffset":22644,"byteLength":12},{"buffer":0,"byteOffset":22656,"byteLength":48},{"buffer":0,"byteOffset":22704,"byteLength":12},{"buffer":0,"byteOffset":22716,"byteLength":36}],"buffers":[{"byteLength":22752,"uri":"data:application/octet-stream;base64,"}],"accessors":[{"bufferView":0,"componentType":5126,"count":60,"max":[0.12073241919279099,0.11882812529802322,0.5575781464576721],"min":[-0.11692383140325546,-0.11882812529802322,-0.5575781464576721],"type":"VEC3"},{"bufferView":1,"componentType":5126,"count":60,"max":[0.9998656511306763,1,1],"min":[-0.9998656511306763,-1,-1],"type":"VEC3"},{"bufferView":2,"componentType":5126,"count":60,"max":[0.47889238595962524,0.69140625],"min":[0,0],"type":"VEC2"},{"bufferView":3,"componentType":5123,"count":60,"max":[59],"min":[0],"type":"SCALAR"},{"bufferView":4,"componentType":5126,"count":192,"max":[0.09062500298023224,0.7875000238418579,0.03750000149011612],"min":[-0.23749999701976776,-0.4749999940395355,-0.03750000149011612],"type":"VEC3"},{"bufferView":5,"componentType":5126,"count":192,"max":[1,0.9805806875228882,1],"min":[-1,-1,-1],"type":"VEC3"},{"bufferView":6,"componentType":5126,"count":192,"max":[0.4375,0.625],"min":[0,0],"type":"VEC2"},{"bufferView":7,"componentType":5123,"count":288,"max":[191],"min":[0],"type":"SCALAR"},{"bufferView":8,"componentType":5126,"count":64,"max":[0.04531250149011612,0.02187499962747097,0.04531250149011612],"min":[-0.04531250149011612,-0.015625,-0.04531250149011612],"type":"VEC3"},{"bufferView":9,"componentType":5126,"count":64,"max":[0.9874406456947327,0.9903844594955444,0.9874406456947327],"min":[-0.9874406456947327,-1,-0.9874406456947327],"type":"VEC3"},{"bufferView":10,"componentType":5126,"count":64,"max":[0.3125,0.3125],"min":[0,0],"type":"VEC2"},{"bufferView":11,"componentType":5123,"count":96,"max":[63],"min":[0],"type":"SCALAR"},{"bufferView":12,"componentType":5126,"count":64,"max":[0.04531250149011612,0.02187499962747097,0.04531250149011612],"min":[-0.04531250149011612,-0.015625,-0.04531250149011612],"type":"VEC3"},{"bufferView":13,"componentType":5126,"count":64,"max":[0.9874406456947327,0.9903844594955444,0.9874406456947327],"min":[-0.9874406456947327,-1,-0.9874406456947327],"type":"VEC3"},{"bufferView":14,"componentType":5126,"count":64,"max":[0.3125,0.3125],"min":[0,0],"type":"VEC2"},{"bufferView":15,"componentType":5123,"count":96,"max":[63],"min":[0],"type":"SCALAR"},{"bufferView":16,"componentType":5126,"count":84,"max":[0.07198242098093033,0.10968749970197678,0.142822265625],"min":[-0.0669550746679306,-0.10968749970197678,-0.07655273377895355],"type":"VEC3"},{"bufferView":17,"componentType":5126,"count":84,"max":[1,1,1],"min":[-1,-1,-1],"type":"VEC3"},{"bufferView":18,"componentType":5126,"count":84,"max":[0.9156249761581421,0.765625],"min":[0.0035679687280207872,0],"type":"VEC2"},{"bufferView":19,"componentType":5123,"count":84,"max":[83],"min":[0],"type":"SCALAR"},{"bufferView":20,"componentType":5126,"count":36,"max":[0.041132811456918716,0.03656249865889549,0.10054687410593033],"min":[-0.041132811456918716,-0.10968749970197678,-0.12796874344348907],"type":"VEC3"},{"bufferView":21,"componentType":5126,"count":36,"max":[1,1,1],"min":[-1,-1,-1],"type":"VEC3"},{"bufferView":22,"componentType":5126,"count":36,"max":[0.546875,0.796875],"min":[0,0],"type":"VEC2"},{"bufferView":23,"componentType":5123,"count":36,"max":[35],"min":[0],"type":"SCALAR"},{"bufferView":24,"componentType":5126,"count":36,"max":[0.02285156212747097,0.027421874925494194,0.09140624850988388],"min":[-0.041132811456918716,-0.027421874925494194,-0.09140624850988388],"type":"VEC3"},{"bufferView":25,"componentType":5126,"count":36,"max":[1,1,1],"min":[-1,-1,-1],"type":"VEC3"},{"bufferView":26,"componentType":5126,"count":36,"max":[0.5625,0.421875],"min":[0,0],"type":"VEC2"},{"bufferView":27,"componentType":5123,"count":36,"max":[35],"min":[0],"type":"SCALAR"},{"bufferView":28,"componentType":5126,"count":36,"max":[0.041132811456918716,0.03656249865889549,0.10054687410593033],"min":[-0.041132811456918716,-0.03656249865889549,-0.12796874344348907],"type":"VEC3"},{"bufferView":29,"componentType":5126,"count":36,"max":[1,1,1],"min":[-1,-1,-1],"type":"VEC3"},{"bufferView":30,"componentType":5126,"count":36,"max":[0.703125,0.53125],"min":[0,0],"type":"VEC2"},{"bufferView":31,"componentType":5123,"count":36,"max":[35],"min":[0],"type":"SCALAR"},{"bufferView":32,"componentType":5126,"count":36,"max":[0.08866406232118607,0.009140624664723873,0.009140624664723873],"min":[-0.16453124582767487,-0.24405469000339508,-0.03656249865889549],"type":"VEC3"},{"bufferView":33,"componentType":5126,"count":36,"max":[1,1,1],"min":[-1,-1,-1],"type":"VEC3"},{"bufferView":34,"componentType":5126,"count":36,"max":[0.984375,0.890625],"min":[0,0],"type":"VEC2"},{"bufferView":35,"componentType":5123,"count":36,"max":[35],"min":[0],"type":"SCALAR"},{"bufferView":36,"componentType":5126,"count":36,"max":[0.12239297479391098,0.1600523442029953,0.12239297479391098],"min":[-0.12239297479391098,-0.08473359793424606,-1.0262179374694824],"type":"VEC3"},{"bufferView":37,"componentType":5126,"count":36,"max":[1,1,1],"min":[-1,-1,-1],"type":"VEC3"},{"bufferView":38,"componentType":5126,"count":36,"max":[0.4921875,0.7109375],"min":[0,0],"type":"VEC2"},{"bufferView":39,"componentType":5123,"count":36,"max":[35],"min":[0],"type":"SCALAR"},{"bufferView":40,"componentType":5126,"count":2,"max":[0.5],"min":[0],"type":"SCALAR"},{"bufferView":41,"componentType":5126,"count":2,"max":[0,0,0,1],"min":[0,0,0,1],"type":"VEC4"},{"bufferView":42,"componentType":5126,"count":2,"max":[0.5],"min":[0],"type":"SCALAR"},{"bufferView":43,"componentType":5126,"count":2,"max":[-0.4375,-0.375,-8.8046875],"min":[-0.4375,-0.375,-8.8046875],"type":"VEC3"},{"bufferView":44,"componentType":5126,"count":8,"max":[0.5],"min":[0],"type":"SCALAR"},{"bufferView":45,"componentType":5126,"count":8,"max":[0,0.421713650226593,0.02502889558672905,1],"min":[-0.06237586587667465,-0.10886687785387039,0,0.904367208480835],"type":"VEC4"},{"bufferView":46,"componentType":5126,"count":3,"max":[0.5],"min":[0],"type":"SCALAR"},{"bufferView":47,"componentType":5126,"count":3,"max":[0,0,-0.8866406083106995],"min":[0,0,-0.8866406083106995],"type":"VEC3"},{"bufferView":48,"componentType":5126,"count":5,"max":[0.5],"min":[0],"type":"SCALAR"},{"bufferView":49,"componentType":5126,"count":5,"max":[0.07353486120700836,0.047842565923929214,0.6856863498687744,0.8899670243263245],"min":[-0.33374497294425964,-0.17194148898124695,0.4264451861381531,0.7034649848937988],"type":"VEC4"},{"bufferView":50,"componentType":5126,"count":3,"max":[0.5],"min":[0],"type":"SCALAR"},{"bufferView":51,"componentType":5126,"count":3,"max":[-0.019231874495744705,0.05867187678813934,1.0302343368530273],"min":[-0.025481874123215675,0.027421874925494194,1.0146093368530273],"type":"VEC3"},{"bufferView":52,"componentType":5126,"count":3,"max":[0.5],"min":[0],"type":"SCALAR"},{"bufferView":53,"componentType":5126,"count":3,"max":[0,0,0,1],"min":[0,0,0,1],"type":"VEC4"},{"bufferView":54,"componentType":5126,"count":3,"max":[0.5],"min":[0],"type":"SCALAR"},{"bufferView":55,"componentType":5126,"count":3,"max":[0.019231874495744705,0.009140624664723873,1.106015682220459],"min":[0.019231874495744705,0.009140624664723873,1.106015682220459],"type":"VEC3"}],"materials":[{"pbrMetallicRoughness":{"metallicFactor":0,"roughnessFactor":1,"baseColorTexture":{"index":0}},"alphaMode":"MASK","alphaCutoff":0.05,"doubleSided":true},{"pbrMetallicRoughness":{"metallicFactor":0,"roughnessFactor":1,"baseColorTexture":{"index":1}},"alphaMode":"MASK","alphaCutoff":0.05,"doubleSided":true},{"pbrMetallicRoughness":{"metallicFactor":0,"roughnessFactor":1,"baseColorTexture":{"index":2}},"alphaMode":"MASK","alphaCutoff":0.05,"doubleSided":true},{"pbrMetallicRoughness":{"metallicFactor":0,"roughnessFactor":1,"baseColorTexture":{"index":3}},"alphaMode":"MASK","alphaCutoff":0.05,"doubleSided":true},{"pbrMetallicRoughness":{"metallicFactor":0,"roughnessFactor":1,"baseColorTexture":{"index":4}},"alphaMode":"MASK","alphaCutoff":0.05,"doubleSided":true},{"pbrMetallicRoughness":{"metallicFactor":0,"roughnessFactor":1,"baseColorTexture":{"index":5}},"alphaMode":"MASK","alphaCutoff":0.05,"doubleSided":true},{"pbrMetallicRoughness":{"metallicFactor":0,"roughnessFactor":1,"baseColorTexture":{"index":6}},"alphaMode":"MASK","alphaCutoff":0.05,"doubleSided":true},{"pbrMetallicRoughness":{"metallicFactor":0,"roughnessFactor":1,"baseColorTexture":{"index":7}},"alphaMode":"MASK","alphaCutoff":0.05,"doubleSided":true},{"pbrMetallicRoughness":{"metallicFactor":0,"roughnessFactor":1,"baseColorTexture":{"index":8}},"alphaMode":"MASK","alphaCutoff":0.05,"doubleSided":true}],"textures":[{"sampler":0,"source":0},{"sampler":1,"source":1,"name":"texture"},{"sampler":2,"source":2,"name":"texture"},{"sampler":3,"source":3},{"sampler":4,"source":4},{"sampler":5,"source":5},{"sampler":6,"source":6},{"sampler":7,"source":7},{"sampler":8,"source":8}],"samplers":[{"magFilter":9728,"minFilter":9728,"wrapS":10497,"wrapT":10497},{"magFilter":9728,"minFilter":9728,"wrapS":10497,"wrapT":10497},{"magFilter":9728,"minFilter":9728,"wrapS":10497,"wrapT":10497},{"magFilter":9728,"minFilter":9728,"wrapS":10497,"wrapT":10497},{"magFilter":9728,"minFilter":9728,"wrapS":10497,"wrapT":10497},{"magFilter":9728,"minFilter":9728,"wrapS":10497,"wrapT":10497},{"magFilter":9728,"minFilter":9728,"wrapS":10497,"wrapT":10497},{"magFilter":9728,"minFilter":9728,"wrapS":10497,"wrapT":10497},{"magFilter":9728,"minFilter":9728,"wrapS":10497,"wrapT":10497}],"images":[{"mimeType":"image/png","uri":"data:image/png;base64,"},{"mimeType":"image/png","uri":"data:image/png;base64,"},{"mimeType":"image/png","uri":"data:image/png;base64,"},{"mimeType":"image/png","uri":"data:image/png;base64,"},{"mimeType":"image/png","uri":"data:image/png;base64,"},{"mimeType":"image/png","uri":"data:image/png;base64,"},{"mimeType":"image/png","uri":"data:image/png;base64,"},{"mimeType":"image/png","uri":"data:image/png;base64,"},{"mimeType":"image/png","uri":"data:image/png;base64,"}],"meshes":[{"primitives":[{"mode":4,"attributes":{"POSITION":0,"NORMAL":1,"TEXCOORD_0":2},"indices":3,"material":0}]},{"primitives":[{"mode":4,"attributes":{"POSITION":4,"NORMAL":5,"TEXCOORD_0":6},"indices":7,"material":1}]},{"primitives":[{"mode":4,"attributes":{"POSITION":8,"NORMAL":9,"TEXCOORD_0":10},"indices":11,"material":2}]},{"primitives":[{"mode":4,"attributes":{"POSITION":12,"NORMAL":13,"TEXCOORD_0":14},"indices":15,"material":2}]},{"primitives":[{"mode":4,"attributes":{"POSITION":16,"NORMAL":17,"TEXCOORD_0":18},"indices":19,"material":3}]},{"primitives":[{"mode":4,"attributes":{"POSITION":20,"NORMAL":21,"TEXCOORD_0":22},"indices":23,"material":4}]},{"primitives":[{"mode":4,"attributes":{"POSITION":24,"NORMAL":25,"TEXCOORD_0":26},"indices":27,"material":5}]},{"primitives":[{"mode":4,"attributes":{"POSITION":28,"NORMAL":29,"TEXCOORD_0":30},"indices":31,"material":6}]},{"primitives":[{"mode":4,"attributes":{"POSITION":32,"NORMAL":33,"TEXCOORD_0":34},"indices":35,"material":7}]},{"primitives":[{"mode":4,"attributes":{"POSITION":36,"NORMAL":37,"TEXCOORD_0":38},"indices":39,"material":8}]}],"animations":[{"name":"swing","samplers":[{"input":40,"output":41,"interpolation":"LINEAR"},{"input":42,"output":43,"interpolation":"LINEAR"},{"input":44,"output":45,"interpolation":"LINEAR"},{"input":46,"output":47,"interpolation":"LINEAR"},{"input":48,"output":49,"interpolation":"LINEAR"},{"input":50,"output":51,"interpolation":"LINEAR"},{"input":52,"output":53,"interpolation":"LINEAR"},{"input":54,"output":55,"interpolation":"LINEAR"}],"channels":[{"sampler":0,"target":{"node":19,"path":"rotation"}},{"sampler":1,"target":{"node":19,"path":"translation"}},{"sampler":2,"target":{"node":18,"path":"rotation"}},{"sampler":3,"target":{"node":18,"path":"translation"}},{"sampler":4,"target":{"node":14,"path":"rotation"}},{"sampler":5,"target":{"node":14,"path":"translation"}},{"sampler":6,"target":{"node":13,"path":"rotation"}},{"sampler":7,"target":{"node":13,"path":"translation"}}]}]}