{"asset":{"version":"2.0","generator":"Blockbench 5.1.4 glTF exporter"},"scenes":[{"nodes":[0,1,2,3,4,5],"name":"blockbench_export"}],"scene":0,"nodes":[{"name":"Body","mesh":0},{"rotation":[0,0,0.7071067811865475,0.7071067811865476],"translation":[-14,-3,-27],"name":"wheel","mesh":1},{"rotation":[0,0,0.7071067811865475,0.7071067811865476],"translation":[-14,-3,34],"name":"wheel","mesh":2},{"rotation":[0,0,0.7071067811865475,0.7071067811865476],"translation":[21,-3,-27],"name":"wheel","mesh":3},{"rotation":[0,0,0.7071067811865475,0.7071067811865476],"translation":[21,-3,34],"name":"wheel","mesh":4},{"rotation":[0.02181488503456112,0,0,0.9997620270799091],"translation":[0,13,-39],"name":"mesh","mesh":5}],"bufferViews":[{"buffer":0,"byteOffset":0,"byteLength":2496,"target":34962,"byteStride":12},{"buffer":0,"byteOffset":2496,"byteLength":2496,"target":34962,"byteStride":12},{"buffer":0,"byteOffset":4992,"byteLength":1664,"target":34962,"byteStride":8},{"buffer":0,"byteOffset":6656,"byteLength":624,"target":34963},{"buffer":0,"byteOffset":7280,"byteLength":960,"target":34962,"byteStride":12},{"buffer":0,"byteOffset":8240,"byteLength":960,"target":34962,"byteStride":12},{"buffer":0,"byteOffset":9200,"byteLength":640,"target":34962,"byteStride":8},{"buffer":0,"byteOffset":9840,"byteLength":192,"target":34963},{"buffer":0,"byteOffset":10032,"byteLength":960,"target":34962,"byteStride":12},{"buffer":0,"byteOffset":10992,"byteLength":960,"target":34962,"byteStride":12},{"buffer":0,"byteOffset":11952,"byteLength":640,"target":34962,"byteStride":8},{"buffer":0,"byteOffset":12592,"byteLength":192,"target":34963},{"buffer":0,"byteOffset":12784,"byteLength":960,"target":34962,"byteStride":12},{"buffer":0,"byteOffset":13744,"byteLength":960,"target":34962,"byteStride":12},{"buffer":0,"byteOffset":14704,"byteLength":640,"target":34962,"byteStride":8},{"buffer":0,"byteOffset":15344,"byteLength":192,"target":34963},{"buffer":0,"byteOffset":15536,"byteLength":960,"target":34962,"byteStride":12},{"buffer":0,"byteOffset":16496,"byteLength":960,"target":34962,"byteStride":12},{"buffer":0,"byteOffset":17456,"byteLength":640,"target":34962,"byteStride":8},{"buffer":0,"byteOffset":18096,"byteLength":192,"target":34963},{"buffer":0,"byteOffset":18288,"byteLength":288,"target":34962,"byteStride":12},{"buffer":0,"byteOffset":18576,"byteLength":288,"target":34962,"byteStride":12},{"buffer":0,"byteOffset":18864,"byteLength":192,"target":34962,"byteStride":8},{"buffer":0,"byteOffset":19056,"byteLength":72,"target":34963}],"buffers":[{"byteLength":19128,"uri":"data:application/octet-stream;base64,"}],"accessors":[{"bufferView":0,"componentType":5126,"count":208,"max":[18,27,54],"min":[-18,-5,-48],"type":"VEC3"},{"bufferView":1,"componentType":5126,"count":208,"max":[1,1,1],"min":[-1,-1,-1],"type":"VEC3"},{"bufferView":2,"componentType":5126,"count":208,"max":[2.25,1.125],"min":[-1.25,0],"type":"VEC2"},{"bufferView":3,"componentType":5123,"count":312,"max":[207],"min":[0],"type":"SCALAR"},{"bufferView":4,"componentType":5126,"count":80,"max":[8,7,8],"min":[-8,0,-8],"type":"VEC3"},{"bufferView":5,"componentType":5126,"count":80,"max":[1,1,1],"min":[-1,-1,-1],"type":"VEC3"},{"bufferView":6,"componentType":5126,"count":80,"max":[0.5411958694458008,0.5411958694458008],"min":[0,0],"type":"VEC2"},{"bufferView":7,"componentType":5123,"count":96,"max":[79],"min":[0],"type":"SCALAR"},{"bufferView":8,"componentType":5126,"count":80,"max":[8,7,8],"min":[-8,0,-8],"type":"VEC3"},{"bufferView":9,"componentType":5126,"count":80,"max":[1,1,1],"min":[-1,-1,-1],"type":"VEC3"},{"bufferView":10,"componentType":5126,"count":80,"max":[0.5411958694458008,0.5411958694458008],"min":[0,0],"type":"VEC2"},{"bufferView":11,"componentType":5123,"count":96,"max":[79],"min":[0],"type":"SCALAR"},{"bufferView":12,"componentType":5126,"count":80,"max":[8,7,8],"min":[-8,0,-8],"type":"VEC3"},{"bufferView":13,"componentType":5126,"count":80,"max":[1,1,1],"min":[-1,-1,-1],"type":"VEC3"},{"bufferView":14,"componentType":5126,"count":80,"max":[0.5411958694458008,0.5411958694458008],"min":[0,0],"type":"VEC2"},{"bufferView":15,"componentType":5123,"count":96,"max":[79],"min":[0],"type":"SCALAR"},{"bufferView":16,"componentType":5126,"count":80,"max":[8,7,8],"min":[-8,0,-8],"type":"VEC3"},{"bufferView":17,"componentType":5126,"count":80,"max":[1,1,1],"min":[-1,-1,-1],"type":"VEC3"},{"bufferView":18,"componentType":5126,"count":80,"max":[0.5411958694458008,0.5411958694458008],"min":[0,0],"type":"VEC2"},{"bufferView":19,"componentType":5123,"count":96,"max":[79],"min":[0],"type":"SCALAR"},{"bufferView":20,"componentType":5126,"count":24,"max":[18,0.6000000238418579,8],"min":[-18,0.4000000059604645,-9],"type":"VEC3"},{"bufferView":21,"componentType":5126,"count":24,"max":[1,1,1],"min":[-1,-1,-1],"type":"VEC3"},{"bufferView":22,"componentType":5126,"count":24,"max":[1,1],"min":[0,0],"type":"VEC2"},{"bufferView":23,"componentType":5123,"count":36,"max":[23],"min":[0],"type":"SCALAR"}],"materials":[{"pbrMetallicRoughness":{"metallicFactor":0,"roughnessFactor":1},"alphaMode":"MASK","alphaCutoff":0.05,"doubleSided":true},{"pbrMetallicRoughness":{"metallicFactor":0,"roughnessFactor":1},"alphaMode":"MASK","alphaCutoff":0.05,"doubleSided":true}],"meshes":[{"primitives":[{"mode":4,"attributes":{"POSITION":0,"NORMAL":1,"TEXCOORD_0":2},"indices":3,"material":0}]},{"primitives":[{"mode":4,"attributes":{"POSITION":4,"NORMAL":5,"TEXCOORD_0":6},"indices":7,"material":1}]},{"primitives":[{"mode":4,"attributes":{"POSITION":8,"NORMAL":9,"TEXCOORD_0":10},"indices":11,"material":1}]},{"primitives":[{"mode":4,"attributes":{"POSITION":12,"NORMAL":13,"TEXCOORD_0":14},"indices":15,"material":1}]},{"primitives":[{"mode":4,"attributes":{"POSITION":16,"NORMAL":17,"TEXCOORD_0":18},"indices":19,"material":1}]},{"primitives":[{"mode":4,"attributes":{"POSITION":20,"NORMAL":21,"TEXCOORD_0":22},"indices":23,"material":0}]}]}