{"asset":{"version":"2.0","generator":"Blockbench 5.1.4 glTF exporter"},"scenes":[{"nodes":[15],"name":"blockbench_export"}],"scene":0,"nodes":[{"rotation":[-0.36328527434537866,0.46905315966659694,-0.5412866011388356,0.5958370232522916],"translation":[0.75,2.75,-10.000000000000002],"name":"arm_L","mesh":0},{"translation":[-1.040000000000001,-7.328,-2.283333333333333],"name":"armL","children":[0]},{"rotation":[0.5047565017891514,-0.5574935608052299,0.4497833348545337,-0.48178496785331326],"translation":[-4.440892098500626e-16,0,0],"name":"arm_R","mesh":1},{"translation":[1.5799999999999994,-5.347999999999997,-1.4733333333333327],"name":"armR","children":[2]},{"rotation":[1.1102230246251565e-16,0,0,1],"name":"M700_TriggerGuard__0","mesh":2},{"name":"M700_Stock__0","mesh":3},{"rotation":[-0.7071067811865475,0,0,0.7071067811865476],"name":"M700_Stock","children":[4,5]},{"rotation":[0,-1.3684555315672042e-48,0,1],"name":"M700Bolt_Indicator__0","mesh":4},{"name":"M700_Barrel__0","mesh":5},{"rotation":[-8.659560562354933e-17,-0.7071067811865477,-0.7071067811865474,-2.465190328815662e-32],"translation":[-2.220446049250313e-15,-18.6,0.5999999999999996],"name":"M700_Sight","mesh":6},{"rotation":[-0.7071067811865475,0,0,0.7071067811865476],"name":"M700_Barrel","children":[7,8,9]},{"name":"M700Bolt_Head__0","mesh":7},{"name":"M700Bolt__0","mesh":8},{"rotation":[-0.7071067811865475,0,0,0.7071067811865476],"name":"M700Bolt","children":[11,12]},{"rotation":[6.123233995736766e-17,1,6.123233995736766e-17,-6.123233995736766e-17],"translation":[2,-2.75,-6.5],"name":"M700","children":[6,10,13]},{"rotation":[0,-1,0,6.123233995736766e-17],"name":"ALL","children":[1,3,14]}],"bufferViews":[{"buffer":0,"byteOffset":0,"byteLength":288,"target":34962,"byteStride":12},{"buffer":0,"byteOffset":288,"byteLength":288,"target":34962,"byteStride":12},{"buffer":0,"byteOffset":576,"byteLength":192,"target":34962,"byteStride":8},{"buffer":0,"byteOffset":768,"byteLength":72,"target":34963},{"buffer":0,"byteOffset":840,"byteLength":288,"target":34962,"byteStride":12},{"buffer":0,"byteOffset":1128,"byteLength":288,"target":34962,"byteStride":12},{"buffer":0,"byteOffset":1416,"byteLength":192,"target":34962,"byteStride":8},{"buffer":0,"byteOffset":1608,"byteLength":72,"target":34963},{"buffer":0,"byteOffset":1680,"byteLength":122112,"target":34962,"byteStride":12},{"buffer":0,"byteOffset":123792,"byteLength":122112,"target":34962,"byteStride":12},{"buffer":0,"byteOffset":245904,"byteLength":81408,"target":34962,"byteStride":8},{"buffer":0,"byteOffset":327312,"byteLength":20352,"target":34963},{"buffer":0,"byteOffset":347664,"byteLength":165744,"target":34962,"byteStride":12},{"buffer":0,"byteOffset":513408,"byteLength":165744,"target":34962,"byteStride":12},{"buffer":0,"byteOffset":679152,"byteLength":110496,"target":34962,"byteStride":8},{"buffer":0,"byteOffset":789648,"byteLength":27624,"target":34963},{"buffer":0,"byteOffset":817272,"byteLength":16776,"target":34962,"byteStride":12},{"buffer":0,"byteOffset":834048,"byteLength":16776,"target":34962,"byteStride":12},{"buffer":0,"byteOffset":850824,"byteLength":11184,"target":34962,"byteStride":8},{"buffer":0,"byteOffset":862008,"byteLength":2796,"target":34963},{"buffer":0,"byteOffset":864804,"byteLength":131832,"target":34962,"byteStride":12},{"buffer":0,"byteOffset":996636,"byteLength":131832,"target":34962,"byteStride":12},{"buffer":0,"byteOffset":1128468,"byteLength":87888,"target":34962,"byteStride":8},{"buffer":0,"byteOffset":1216356,"byteLength":21972,"target":34963},{"buffer":0,"byteOffset":1238328,"byteLength":288,"target":34962,"byteStride":12},{"buffer":0,"byteOffset":1238616,"byteLength":288,"target":34962,"byteStride":12},{"buffer":0,"byteOffset":1238904,"byteLength":192,"target":34962,"byteStride":8},{"buffer":0,"byteOffset":1239096,"byteLength":72,"target":34963},{"buffer":0,"byteOffset":1239168,"byteLength":21744,"target":34962,"byteStride":12},{"buffer":0,"byteOffset":1260912,"byteLength":21744,"target":34962,"byteStride":12},{"buffer":0,"byteOffset":1282656,"byteLength":14496,"target":34962,"byteStride":8},{"buffer":0,"byteOffset":1297152,"byteLength":3624,"target":34963},{"buffer":0,"byteOffset":1300776,"byteLength":55872,"target":34962,"byteStride":12},{"buffer":0,"byteOffset":1356648,"byteLength":55872,"target":34962,"byteStride":12},{"buffer":0,"byteOffset":1412520,"byteLength":37248,"target":34962,"byteStride":8},{"buffer":0,"byteOffset":1449768,"byteLength":9312,"target":34963},{"buffer":0,"byteOffset":1459080,"byteLength":20},{"buffer":0,"byteOffset":1459100,"byteLength":80},{"buffer":0,"byteOffset":1459180,"byteLength":20},{"buffer":0,"byteOffset":1459200,"byteLength":60},{"buffer":0,"byteOffset":1459260,"byteLength":16},{"buffer":0,"byteOffset":1459276,"byteLength":64},{"buffer":0,"byteOffset":1459340,"byteLength":20},{"buffer":0,"byteOffset":1459360,"byteLength":60},{"buffer":0,"byteOffset":1459420,"byteLength":20},{"buffer":0,"byteOffset":1459440,"byteLength":80},{"buffer":0,"byteOffset":1459520,"byteLength":20},{"buffer":0,"byteOffset":1459540,"byteLength":60},{"buffer":0,"byteOffset":1459600,"byteLength":24},{"buffer":0,"byteOffset":1459624,"byteLength":96},{"buffer":0,"byteOffset":1459720,"byteLength":20},{"buffer":0,"byteOffset":1459740,"byteLength":60},{"buffer":0,"byteOffset":1459800,"byteLength":52},{"buffer":0,"byteOffset":1459852,"byteLength":208},{"buffer":0,"byteOffset":1460060,"byteLength":44},{"buffer":0,"byteOffset":1460104,"byteLength":132},{"buffer":0,"byteOffset":1460236,"byteLength":28},{"buffer":0,"byteOffset":1460264,"byteLength":112},{"buffer":0,"byteOffset":1460376,"byteLength":8},{"buffer":0,"byteOffset":1460384,"byteLength":24},{"buffer":0,"byteOffset":1460408,"byteLength":24},{"buffer":0,"byteOffset":1460432,"byteLength":96},{"buffer":0,"byteOffset":1460528,"byteLength":40},{"buffer":0,"byteOffset":1460568,"byteLength":120}],"buffers":[{"byteLength":1460688,"uri":"data:application/octet-stream;base64,"}],"accessors":[{"bufferView":0,"componentType":5126,"count":24,"max":[1.559999942779541,4.159999847412109,3.119999885559082],"min":[-1.0399999618530273,-8.640000343322754,0],"type":"VEC3"},{"bufferView":1,"componentType":5126,"count":24,"max":[1,1,1],"min":[-1,-1,-1],"type":"VEC3"},{"bufferView":2,"componentType":5126,"count":24,"max":[0.59375,0.96875],"min":[0,0],"type":"VEC2"},{"bufferView":3,"componentType":5123,"count":36,"max":[23],"min":[0],"type":"SCALAR"},{"bufferView":4,"componentType":5126,"count":24,"max":[1.559999942779541,4.159999847412109,3.119999885559082],"min":[-1.0399999618530273,-8.640000343322754,0],"type":"VEC3"},{"bufferView":5,"componentType":5126,"count":24,"max":[1,1,1],"min":[-1,-1,-1],"type":"VEC3"},{"bufferView":6,"componentType":5126,"count":24,"max":[0.59375,0.96875],"min":[0,0],"type":"VEC2"},{"bufferView":7,"componentType":5123,"count":36,"max":[23],"min":[0],"type":"SCALAR"},{"bufferView":8,"componentType":5126,"count":10176,"max":[0.3383910059928894,2.305002450942993,-0.4074612855911255],"min":[-0.3383910059928894,-2.9249441623687744,-2.1059718132019043],"type":"VEC3"},{"bufferView":9,"componentType":5126,"count":10176,"max":[1,1,0.9993757605552673],"min":[-1,-1,-1],"type":"VEC3"},{"bufferView":10,"componentType":5126,"count":10176,"max":[0.9939308166503906,0.9725064635276794],"min":[0.36784234642982483,0.030686795711517334],"type":"VEC2"},{"bufferView":11,"componentType":5123,"count":10176,"max":[10175],"min":[0],"type":"SCALAR"},{"bufferView":12,"componentType":5126,"count":13812,"max":[0.5347747206687927,10.794488906860352,0.22488826513290405],"min":[-0.5347747206687927,-10.380192756652832,-3.930872678756714],"type":"VEC3"},{"bufferView":13,"componentType":5126,"count":13812,"max":[1,1,1],"min":[-1,-1,-1],"type":"VEC3"},{"bufferView":14,"componentType":5126,"count":13812,"max":[0.9925491809844971,0.994160532951355],"min":[0.005967841949313879,0.0058394670486450195],"type":"VEC2"},{"bufferView":15,"componentType":5123,"count":13812,"max":[13811],"min":[0],"type":"SCALAR"},{"bufferView":16,"componentType":5126,"count":1398,"max":[0.12185407429933548,1.9540331363677979,0.40535345673561096],"min":[-0.12185407429933548,1.2104092836380005,-0.0537993349134922],"type":"VEC3"},{"bufferView":17,"componentType":5126,"count":1398,"max":[1,1,0.9807853102684021],"min":[-1,-1,-0.9807853698730469],"type":"VEC3"},{"bufferView":18,"componentType":5126,"count":1398,"max":[0.9176771640777588,0.9623592495918274],"min":[0.5536004900932312,0.874909520149231],"type":"VEC2"},{"bufferView":19,"componentType":5123,"count":1398,"max":[1397],"min":[0],"type":"SCALAR"},{"bufferView":20,"componentType":5126,"count":10986,"max":[0.4089922308921814,2.42779541015625,0.692491352558136],"min":[-0.47062045335769653,-19.304506301879883,-0.8709728121757507],"type":"VEC3"},{"bufferView":21,"componentType":5126,"count":10986,"max":[1,1,1],"min":[-1,-1,-1],"type":"VEC3"},{"bufferView":22,"componentType":5126,"count":10986,"max":[0.993695080280304,0.9698808789253235],"min":[0.3628278374671936,0.0058394670486450195],"type":"VEC2"},{"bufferView":23,"componentType":5123,"count":10986,"max":[10985],"min":[0],"type":"SCALAR"},{"bufferView":24,"componentType":5126,"count":24,"max":[0.012500000186264515,0.125,0.17499999701976776],"min":[-0.012500000186264515,-0.125,-0.20000000298023224],"type":"VEC3"},{"bufferView":25,"componentType":5126,"count":24,"max":[1,1,0.8778955936431885],"min":[-1,-1,-1],"type":"VEC3"},{"bufferView":26,"componentType":5126,"count":24,"max":[0.5625,0.5625],"min":[0,0],"type":"VEC2"},{"bufferView":27,"componentType":5123,"count":36,"max":[23],"min":[0],"type":"SCALAR"},{"bufferView":28,"componentType":5126,"count":1812,"max":[0.287387490272522,1.9015076160430908,0.5708868503570557],"min":[-0.287387490272522,1.3086823225021362,0.0672077089548111],"type":"VEC3"},{"bufferView":29,"componentType":5126,"count":1812,"max":[0.9992227554321289,1,0.9807854890823364],"min":[-0.9993928670883179,-1,-1],"type":"VEC3"},{"bufferView":30,"componentType":5126,"count":1812,"max":[0.9940321445465088,0.9661674499511719],"min":[0.5633728504180908,0.06058412790298462],"type":"VEC2"},{"bufferView":31,"componentType":5123,"count":1812,"max":[1811],"min":[0],"type":"SCALAR"},{"bufferView":32,"componentType":5126,"count":4656,"max":[0.19251374900341034,1.7375097274780273,0.5708868503570557],"min":[-1.0934354066848755,-2.571068048477173,-0.9704723358154297],"type":"VEC3"},{"bufferView":33,"componentType":5126,"count":4656,"max":[1,1,1],"min":[-1,-1,-1],"type":"VEC3"},{"bufferView":34,"componentType":5126,"count":4656,"max":[0.9921475648880005,0.9719117283821106],"min":[0.36284351348876953,0.0502508282661438],"type":"VEC2"},{"bufferView":35,"componentType":5123,"count":4656,"max":[4655],"min":[0],"type":"SCALAR"},{"bufferView":36,"componentType":5126,"count":5,"max":[0.25],"min":[0],"type":"SCALAR"},{"bufferView":37,"componentType":5126,"count":5,"max":[0.0523359552025795,0,0,1],"min":[0,0,0,0.9986295104026794],"type":"VEC4"},{"bufferView":38,"componentType":5126,"count":5,"max":[0.25],"min":[0],"type":"SCALAR"},{"bufferView":39,"componentType":5126,"count":5,"max":[-1.0399999618530273,-7.328000068664551,0.46666666865348816],"min":[-1.0399999618530273,-7.328000068664551,-2.2833333015441895],"type":"VEC3"},{"bufferView":40,"componentType":5126,"count":4,"max":[0.25],"min":[0],"type":"SCALAR"},{"bufferView":41,"componentType":5126,"count":4,"max":[0.04361938685178757,0,0,1],"min":[0,0,0,0.9990482330322266],"type":"VEC4"},{"bufferView":42,"componentType":5126,"count":5,"max":[0.25],"min":[0],"type":"SCALAR"},{"bufferView":43,"componentType":5126,"count":5,"max":[1.5800000429153442,-5.3480000495910645,1.3266667127609253],"min":[1.5800000429153442,-5.4730000495910645,-1.4733333587646484],"type":"VEC3"},{"bufferView":44,"componentType":5126,"count":5,"max":[0.25],"min":[0],"type":"SCALAR"},{"bufferView":45,"componentType":5126,"count":5,"max":[6.28142362152599e-17,1,0.04797571152448654,0.0008565789903514087],"min":[-0.021798044443130493,0.998810350894928,6.123234262925839e-17,-6.123234262925839e-17],"type":"VEC4"},{"bufferView":46,"componentType":5126,"count":5,"max":[0.25],"min":[0],"type":"SCALAR"},{"bufferView":47,"componentType":5126,"count":5,"max":[2,-2.450000047683716,-3.3499999046325684],"min":[1.850000023841858,-2.75,-6.5],"type":"VEC3"},{"bufferView":48,"componentType":5126,"count":6,"max":[0.625],"min":[0],"type":"SCALAR"},{"bufferView":49,"componentType":5126,"count":6,"max":[0.03925981745123863,0,0,1],"min":[0,0,0,0.9992290139198303],"type":"VEC4"},{"bufferView":50,"componentType":5126,"count":5,"max":[0.625],"min":[0],"type":"SCALAR"},{"bufferView":51,"componentType":5126,"count":5,"max":[-1.0399999618530273,-7.328000068664551,-2.2833333015441895],"min":[-1.0399999618530273,-7.427999973297119,-2.2833333015441895],"type":"VEC3"},{"bufferView":52,"componentType":5126,"count":13,"max":[0.75],"min":[0],"type":"SCALAR"},{"bufferView":53,"componentType":5126,"count":13,"max":[0.20460854470729828,0,0,1],"min":[0,-0.10257993638515472,-0.12194539606571198,0.9670584201812744],"type":"VEC4"},{"bufferView":54,"componentType":5126,"count":11,"max":[0.75],"min":[0],"type":"SCALAR"},{"bufferView":55,"componentType":5126,"count":11,"max":[2.9800000190734863,-2.5480000972747803,0.02666666731238365],"min":[1.5800000429153442,-5.3480000495910645,-1.8733333349227905],"type":"VEC3"},{"bufferView":56,"componentType":5126,"count":7,"max":[0.625],"min":[0],"type":"SCALAR"},{"bufferView":57,"componentType":5126,"count":7,"max":[6.384497605039488e-17,1,0.04361938685178757,-5.850314291620093e-17],"min":[6.123234262925839e-17,0.9990482330322266,6.123234262925839e-17,-6.123234262925839e-17],"type":"VEC4"},{"bufferView":58,"componentType":5126,"count":2,"max":[0.625],"min":[0],"type":"SCALAR"},{"bufferView":59,"componentType":5126,"count":2,"max":[2,-2.75,-6.5],"min":[2,-2.75,-6.5],"type":"VEC3"},{"bufferView":60,"componentType":5126,"count":6,"max":[0.5833333134651184],"min":[0],"type":"SCALAR"},{"bufferView":61,"componentType":5126,"count":6,"max":[-0.5107884407043457,0.48897355794906616,0,0.7071067690849304],"min":[-0.7071067690849304,0,-0.48897355794906616,0.5107884407043457],"type":"VEC4"},{"bufferView":62,"componentType":5126,"count":10,"max":[0.5833333134651184],"min":[0],"type":"SCALAR"},{"bufferView":63,"componentType":5126,"count":10,"max":[0,0.25,0],"min":[-0.2800000011920929,0,-2.25],"type":"VEC3"}],"materials":[{"pbrMetallicRoughness":{"metallicFactor":0,"roughnessFactor":1,"baseColorTexture":{"index":0}},"alphaMode":"MASK","alphaCutoff":0.05,"doubleSided":true},{"pbrMetallicRoughness":{"metallicFactor":0,"roughnessFactor":1,"baseColorTexture":{"index":1}},"alphaMode":"MASK","alphaCutoff":0.05,"doubleSided":true},{"pbrMetallicRoughness":{"metallicFactor":0,"roughnessFactor":1,"baseColorTexture":{"index":2}},"alphaMode":"MASK","alphaCutoff":0.05,"doubleSided":true}],"textures":[{"sampler":0,"source":0,"name":"arm1"},{"sampler":1,"source":1,"name":"texture"},{"sampler":2,"source":2,"name":"texture"}],"samplers":[{"magFilter":9728,"minFilter":9728,"wrapS":10497,"wrapT":10497},{"magFilter":9728,"minFilter":9728,"wrapS":10497,"wrapT":10497},{"magFilter":9728,"minFilter":9728,"wrapS":10497,"wrapT":10497}],"images":[{"mimeType":"image/png","uri":"data:image/png;base64,"},{"mimeType":"image/png","uri":"data:image/png;base64,"},{"mimeType":"image/png","uri":"data:image/png;base64,"}],"meshes":[{"primitives":[{"mode":4,"attributes":{"POSITION":0,"NORMAL":1,"TEXCOORD_0":2},"indices":3,"material":0}]},{"primitives":[{"mode":4,"attributes":{"POSITION":4,"NORMAL":5,"TEXCOORD_0":6},"indices":7,"material":0}]},{"primitives":[{"mode":4,"attributes":{"POSITION":8,"NORMAL":9,"TEXCOORD_0":10},"indices":11,"material":1}]},{"primitives":[{"mode":4,"attributes":{"POSITION":12,"NORMAL":13,"TEXCOORD_0":14},"indices":15,"material":1}]},{"primitives":[{"mode":4,"attributes":{"POSITION":16,"NORMAL":17,"TEXCOORD_0":18},"indices":19,"material":1}]},{"primitives":[{"mode":4,"attributes":{"POSITION":20,"NORMAL":21,"TEXCOORD_0":22},"indices":23,"material":1}]},{"primitives":[{"mode":4,"attributes":{"POSITION":24,"NORMAL":25,"TEXCOORD_0":26},"indices":27,"material":2}]},{"primitives":[{"mode":4,"attributes":{"POSITION":28,"NORMAL":29,"TEXCOORD_0":30},"indices":31,"material":1}]},{"primitives":[{"mode":4,"attributes":{"POSITION":32,"NORMAL":33,"TEXCOORD_0":34},"indices":35,"material":1}]}],"animations":[{"name":"shoot","samplers":[{"input":36,"output":37,"interpolation":"LINEAR"},{"input":38,"output":39,"interpolation":"LINEAR"},{"input":40,"output":41,"interpolation":"LINEAR"},{"input":42,"output":43,"interpolation":"LINEAR"},{"input":44,"output":45,"interpolation":"LINEAR"},{"input":46,"output":47,"interpolation":"LINEAR"}],"channels":[{"sampler":0,"target":{"node":1,"path":"rotation"}},{"sampler":1,"target":{"node":1,"path":"translation"}},{"sampler":2,"target":{"node":3,"path":"rotation"}},{"sampler":3,"target":{"node":3,"path":"translation"}},{"sampler":4,"target":{"node":14,"path":"rotation"}},{"sampler":5,"target":{"node":14,"path":"translation"}}]},{"name":"bolt","samplers":[{"input":48,"output":49,"interpolation":"LINEAR"},{"input":50,"output":51,"interpolation":"LINEAR"},{"input":52,"output":53,"interpolation":"LINEAR"},{"input":54,"output":55,"interpolation":"LINEAR"},{"input":56,"output":57,"interpolation":"LINEAR"},{"input":58,"output":59,"interpolation":"LINEAR"},{"input":60,"output":61,"interpolation":"LINEAR"},{"input":62,"output":63,"interpolation":"LINEAR"}],"channels":[{"sampler":0,"target":{"node":1,"path":"rotation"}},{"sampler":1,"target":{"node":1,"path":"translation"}},{"sampler":2,"target":{"node":3,"path":"rotation"}},{"sampler":3,"target":{"node":3,"path":"translation"}},{"sampler":4,"target":{"node":14,"path":"rotation"}},{"sampler":5,"target":{"node":14,"path":"translation"}},{"sampler":6,"target":{"node":13,"path":"rotation"}},{"sampler":7,"target":{"node":13,"path":"translation"}}]}]}